<?xml version="1.0" standalone="no"?><!DOCTYPE svg PUBLIC "-//W3C//DTD SVG 1.1//EN" "http://www.w3.org/Graphics/SVG/1.1/DTD/svg11.dtd"><svg t="1707297916207" class="icon" viewBox="0 0 1024 1024" version="1.1" xmlns="http://www.w3.org/2000/svg" p-id="13335" xmlns:xlink="http://www.w3.org/1999/xlink" width="128" height="128"><path d="M0 512.208894a511.791106 511.791106 0 1 0 511.791106-511.791105 511.791106 511.791106 0 0 0-511.791106 511.791105z" fill="#006FA0" p-id="13336"></path><path d="M444.318237 581.039576c-148.419421 65.070583-192.913913 99.747042-210.565483 114.891881-27.051816 24.022848-41.778866 113.429621-58.072623 189.362709h671.595267c-15.980416-75.933089-31.334149-165.444308-58.072624-189.362709-17.651571-15.562627-60.474908-49.403509-208.894328-114.891881z" fill="#C6C6C6" p-id="13337"></path><path d="M583.44186 451.420645v164.504284c-39.585475 48.567931-104.447164 46.896777-144.137086 0V451.420645c0.104447-88.884537 144.137087-88.884537 144.137086 0z" fill="#FFDECC" p-id="13338"></path><path d="M583.44186 451.420645v110.087311c-27.365157 19.949408-53.581395 31.334149-72.068543 31.334149s-44.807834-11.071399-72.068543-31.334149V451.420645c0.104447-88.884537 144.137087-88.884537 144.137086 0z" fill="#F7C5AA" p-id="13339"></path><path d="M432.515708 579.263974l-51.179111 27.678498 74.157487 102.77601L511.791106 656.345981z" fill="#FFFFFF" p-id="13340"></path><path d="M590.962056 579.263974l51.179111 27.678498-74.157487 102.77601-56.297021-53.372501z" fill="#FFFFFF" p-id="13341"></path><path d="M312.71481 885.711954h11.489188c-1.044472-51.074663-1.044472-87.944512-1.044471-87.944512s-4.80457 38.227662-10.444717 87.944512z m397.83925 0h-11.384741c0.522236-51.179111 0.522236-87.944512 0.522235-87.944512s4.80457 38.227662 10.653611 87.944512z" fill="#666563" p-id="13342"></path><path d="M511.791106 167.533252c-241.899633 0-154.895145 292.45206-139.123623 315.848225 17.442676 25.694002 100.060384 94.002448 139.123623 94.002448s121.680947-67.995104 139.123623-94.002448c15.667075-23.396165 102.671563-315.848225-139.123623-315.848225z" fill="#FFDECC" p-id="13343"></path><path d="M325.875153 359.820481c12.742554-4.177887 28.827417 10.444716 36.034272 32.169727s3.028968 43.136679-9.922481 47.105671-28.827417-10.444716-36.034272-31.960832-2.715626-43.136679 9.922481-47.314566z m371.100775 0c-12.742554-4.177887-28.827417 10.444716-36.034272 32.169727s-2.820073 43.136679 9.922481 47.314566 28.827417-10.444716 36.034272-32.169727 2.715626-43.136679-9.922481-47.314566z" fill="#FFDECC" p-id="13344"></path><path d="M401.181559 265.609139c-13.99592 76.664219-49.194614 69.561812-46.374541 159.386373-11.280294-69.9796-28.200734-163.459812 19.531619-224.770298 38.123215-49.090167 164.190942-84.184415 245.868625-25.380661 90.24235 19.218278 62.041616 202.94084 49.925745 237.721746-8.46022-56.297022-27.365157-79.693186-51.283558-146.22603-32.378621 23.813953-176.097919 28.931865-217.66789-0.73113z" fill="#BA0404" p-id="13345"></path></svg>